<mxfile host="app.diagrams.net" modified="2023-08-25T11:08:46.654Z" agent="Mozilla/5.0 (Windows NT 10.0; Win64; x64) AppleWebKit/537.36 (KHTML, like Gecko) Chrome/115.0.0.0 Safari/537.36" etag="dzcSz8UnvmR8TUl7ZA95" version="21.6.8" type="device">
  <diagram id="R2lEEEUBdFMjLlhIrx00" name="Page-1">
    <mxGraphModel dx="2537" dy="2029" grid="1" gridSize="10" guides="1" tooltips="1" connect="1" arrows="1" fold="1" page="1" pageScale="1" pageWidth="850" pageHeight="1100" math="0" shadow="0" extFonts="Permanent Marker^https://fonts.googleapis.com/css?family=Permanent+Marker">
      <root>
        <mxCell id="0" />
        <mxCell id="1" parent="0" />
        <mxCell id="GVv9ok4yRNijuJ_Tkm2T-1" value="Ingredienser" style="rounded=0;whiteSpace=wrap;html=1;fillColor=#dae8fc;strokeColor=#6c8ebf;" vertex="1" parent="1">
          <mxGeometry x="-260" y="-730" width="120" height="60" as="geometry" />
        </mxCell>
        <mxCell id="GVv9ok4yRNijuJ_Tkm2T-2" value="Drikkevarer" style="rounded=0;whiteSpace=wrap;html=1;fillColor=#dae8fc;strokeColor=#6c8ebf;" vertex="1" parent="1">
          <mxGeometry x="900" y="-745" width="120" height="60" as="geometry" />
        </mxCell>
        <mxCell id="GVv9ok4yRNijuJ_Tkm2T-4" value="&lt;u&gt;ingrendiens_id&lt;/u&gt;" style="ellipse;whiteSpace=wrap;html=1;fillColor=#d5e8d4;strokeColor=#82b366;" vertex="1" parent="1">
          <mxGeometry x="-130" y="-680" width="90" height="40" as="geometry" />
        </mxCell>
        <mxCell id="GVv9ok4yRNijuJ_Tkm2T-5" value="Salat" style="rounded=0;whiteSpace=wrap;html=1;fillColor=#dae8fc;strokeColor=#6c8ebf;" vertex="1" parent="1">
          <mxGeometry x="-355" y="-212.5" width="120" height="60" as="geometry" />
        </mxCell>
        <mxCell id="GVv9ok4yRNijuJ_Tkm2T-7" value="Salat" style="ellipse;whiteSpace=wrap;html=1;fillColor=#f8cecc;strokeColor=#b85450;" vertex="1" parent="1">
          <mxGeometry x="-330" y="-650" width="90" height="40" as="geometry" />
        </mxCell>
        <mxCell id="GVv9ok4yRNijuJ_Tkm2T-8" value="Frugt_og_grønt" style="ellipse;whiteSpace=wrap;html=1;fillColor=#f8cecc;strokeColor=#b85450;" vertex="1" parent="1">
          <mxGeometry x="-210" y="-640" width="90" height="40" as="geometry" />
        </mxCell>
        <mxCell id="GVv9ok4yRNijuJ_Tkm2T-9" value="Kød" style="ellipse;whiteSpace=wrap;html=1;fillColor=#f8cecc;strokeColor=#b85450;" vertex="1" parent="1">
          <mxGeometry x="-360" y="-720" width="90" height="40" as="geometry" />
        </mxCell>
        <mxCell id="GVv9ok4yRNijuJ_Tkm2T-10" value="Brød" style="ellipse;whiteSpace=wrap;html=1;fillColor=#f8cecc;strokeColor=#b85450;" vertex="1" parent="1">
          <mxGeometry x="-300" y="-800" width="90" height="40" as="geometry" />
        </mxCell>
        <mxCell id="GVv9ok4yRNijuJ_Tkm2T-12" value="Frugt_og_grønt" style="rounded=0;whiteSpace=wrap;html=1;fillColor=#dae8fc;strokeColor=#6c8ebf;" vertex="1" parent="1">
          <mxGeometry x="-120" y="-222.5" width="120" height="60" as="geometry" />
        </mxCell>
        <mxCell id="GVv9ok4yRNijuJ_Tkm2T-13" value="Kød" style="rounded=0;whiteSpace=wrap;html=1;fillColor=#dae8fc;strokeColor=#6c8ebf;" vertex="1" parent="1">
          <mxGeometry x="-355" y="-365" width="120" height="60" as="geometry" />
        </mxCell>
        <mxCell id="GVv9ok4yRNijuJ_Tkm2T-14" value="Brød" style="rounded=0;whiteSpace=wrap;html=1;fillColor=#dae8fc;strokeColor=#6c8ebf;" vertex="1" parent="1">
          <mxGeometry x="-350" y="-520" width="120" height="60" as="geometry" />
        </mxCell>
        <mxCell id="GVv9ok4yRNijuJ_Tkm2T-15" value="&lt;u&gt;brød_id&lt;/u&gt;" style="ellipse;whiteSpace=wrap;html=1;fillColor=#d5e8d4;strokeColor=#82b366;" vertex="1" parent="1">
          <mxGeometry x="-280" y="-570" width="90" height="40" as="geometry" />
        </mxCell>
        <mxCell id="GVv9ok4yRNijuJ_Tkm2T-16" value="brød_type" style="ellipse;whiteSpace=wrap;html=1;fillColor=#d5e8d4;strokeColor=#82b366;" vertex="1" parent="1">
          <mxGeometry x="-380" y="-570" width="90" height="40" as="geometry" />
        </mxCell>
        <mxCell id="GVv9ok4yRNijuJ_Tkm2T-17" value="&lt;u&gt;kød_id&lt;/u&gt;" style="ellipse;whiteSpace=wrap;html=1;fillColor=#d5e8d4;strokeColor=#82b366;" vertex="1" parent="1">
          <mxGeometry x="-285" y="-415" width="90" height="40" as="geometry" />
        </mxCell>
        <mxCell id="GVv9ok4yRNijuJ_Tkm2T-19" value="kød_type" style="ellipse;whiteSpace=wrap;html=1;fillColor=#d5e8d4;strokeColor=#82b366;" vertex="1" parent="1">
          <mxGeometry x="-385" y="-415" width="90" height="40" as="geometry" />
        </mxCell>
        <mxCell id="GVv9ok4yRNijuJ_Tkm2T-20" value="fog_type" style="ellipse;whiteSpace=wrap;html=1;fillColor=#d5e8d4;strokeColor=#82b366;" vertex="1" parent="1">
          <mxGeometry x="-50" y="-272.5" width="90" height="40" as="geometry" />
        </mxCell>
        <mxCell id="GVv9ok4yRNijuJ_Tkm2T-21" value="&lt;u&gt;fog_id&lt;/u&gt;" style="ellipse;whiteSpace=wrap;html=1;fillColor=#d5e8d4;strokeColor=#82b366;" vertex="1" parent="1">
          <mxGeometry x="-160" y="-272.5" width="90" height="40" as="geometry" />
        </mxCell>
        <mxCell id="GVv9ok4yRNijuJ_Tkm2T-22" value="&lt;u&gt;salat_id&lt;/u&gt;" style="ellipse;whiteSpace=wrap;html=1;fillColor=#d5e8d4;strokeColor=#82b366;" vertex="1" parent="1">
          <mxGeometry x="-375" y="-262.5" width="90" height="40" as="geometry" />
        </mxCell>
        <mxCell id="GVv9ok4yRNijuJ_Tkm2T-23" value="salat_type" style="ellipse;whiteSpace=wrap;html=1;fillColor=#d5e8d4;strokeColor=#82b366;" vertex="1" parent="1">
          <mxGeometry x="-285" y="-262.5" width="90" height="40" as="geometry" />
        </mxCell>
        <mxCell id="GVv9ok4yRNijuJ_Tkm2T-24" value="Ost" style="ellipse;whiteSpace=wrap;html=1;fillColor=#f8cecc;strokeColor=#b85450;" vertex="1" parent="1">
          <mxGeometry x="-200" y="-800" width="90" height="40" as="geometry" />
        </mxCell>
        <mxCell id="GVv9ok4yRNijuJ_Tkm2T-25" value="Ost" style="rounded=0;whiteSpace=wrap;html=1;fillColor=#dae8fc;strokeColor=#6c8ebf;" vertex="1" parent="1">
          <mxGeometry x="-120" y="-520" width="120" height="60" as="geometry" />
        </mxCell>
        <mxCell id="GVv9ok4yRNijuJ_Tkm2T-26" value="&lt;u&gt;ost_id&lt;/u&gt;" style="ellipse;whiteSpace=wrap;html=1;fillColor=#d5e8d4;strokeColor=#82b366;" vertex="1" parent="1">
          <mxGeometry x="-150" y="-570" width="90" height="40" as="geometry" />
        </mxCell>
        <mxCell id="GVv9ok4yRNijuJ_Tkm2T-27" value="ost_type" style="ellipse;whiteSpace=wrap;html=1;fillColor=#d5e8d4;strokeColor=#82b366;" vertex="1" parent="1">
          <mxGeometry x="-50" y="-570" width="90" height="40" as="geometry" />
        </mxCell>
        <mxCell id="GVv9ok4yRNijuJ_Tkm2T-28" value="Dressing_og_dip" style="ellipse;whiteSpace=wrap;html=1;fillColor=#f8cecc;strokeColor=#b85450;" vertex="1" parent="1">
          <mxGeometry x="-120" y="-740" width="90" height="40" as="geometry" />
        </mxCell>
        <mxCell id="GVv9ok4yRNijuJ_Tkm2T-30" value="Dressing_og_dip" style="rounded=0;whiteSpace=wrap;html=1;fillColor=#dae8fc;strokeColor=#6c8ebf;" vertex="1" parent="1">
          <mxGeometry x="-115" y="-370" width="120" height="60" as="geometry" />
        </mxCell>
        <mxCell id="GVv9ok4yRNijuJ_Tkm2T-31" value="&lt;u&gt;dod_id&lt;/u&gt;" style="ellipse;whiteSpace=wrap;html=1;fillColor=#d5e8d4;strokeColor=#82b366;" vertex="1" parent="1">
          <mxGeometry x="-155" y="-420" width="90" height="40" as="geometry" />
        </mxCell>
        <mxCell id="GVv9ok4yRNijuJ_Tkm2T-32" value="dod_type" style="ellipse;whiteSpace=wrap;html=1;fillColor=#d5e8d4;strokeColor=#82b366;" vertex="1" parent="1">
          <mxGeometry x="-55" y="-420" width="90" height="40" as="geometry" />
        </mxCell>
        <mxCell id="GVv9ok4yRNijuJ_Tkm2T-33" value="&lt;u&gt;drikkevare_id&lt;/u&gt;" style="ellipse;whiteSpace=wrap;html=1;fillColor=#d5e8d4;strokeColor=#82b366;" vertex="1" parent="1">
          <mxGeometry x="795" y="-735" width="90" height="40" as="geometry" />
        </mxCell>
        <mxCell id="GVv9ok4yRNijuJ_Tkm2T-34" value="Vand" style="ellipse;whiteSpace=wrap;html=1;fillColor=#f8cecc;strokeColor=#b85450;" vertex="1" parent="1">
          <mxGeometry x="835" y="-790" width="90" height="40" as="geometry" />
        </mxCell>
        <mxCell id="GVv9ok4yRNijuJ_Tkm2T-35" value="Juice" style="ellipse;whiteSpace=wrap;html=1;fillColor=#f8cecc;strokeColor=#b85450;" vertex="1" parent="1">
          <mxGeometry x="940" y="-800" width="90" height="40" as="geometry" />
        </mxCell>
        <mxCell id="GVv9ok4yRNijuJ_Tkm2T-36" value="Sodavand" style="ellipse;whiteSpace=wrap;html=1;fillColor=#f8cecc;strokeColor=#b85450;" vertex="1" parent="1">
          <mxGeometry x="1035" y="-777.5" width="90" height="40" as="geometry" />
        </mxCell>
        <mxCell id="GVv9ok4yRNijuJ_Tkm2T-37" value="Milkshake" style="ellipse;whiteSpace=wrap;html=1;fillColor=#f8cecc;strokeColor=#b85450;" vertex="1" parent="1">
          <mxGeometry x="865" y="-670" width="90" height="40" as="geometry" />
        </mxCell>
        <mxCell id="GVv9ok4yRNijuJ_Tkm2T-38" value="Kaffe" style="ellipse;whiteSpace=wrap;html=1;fillColor=#f8cecc;strokeColor=#b85450;" vertex="1" parent="1">
          <mxGeometry x="980" y="-665" width="90" height="40" as="geometry" />
        </mxCell>
        <mxCell id="GVv9ok4yRNijuJ_Tkm2T-39" value="Vand" style="rounded=0;whiteSpace=wrap;html=1;fillColor=#dae8fc;strokeColor=#6c8ebf;" vertex="1" parent="1">
          <mxGeometry x="730" y="-540" width="120" height="60" as="geometry" />
        </mxCell>
        <mxCell id="GVv9ok4yRNijuJ_Tkm2T-40" value="Sodavand" style="rounded=0;whiteSpace=wrap;html=1;fillColor=#dae8fc;strokeColor=#6c8ebf;" vertex="1" parent="1">
          <mxGeometry x="700" y="-370" width="120" height="60" as="geometry" />
        </mxCell>
        <mxCell id="GVv9ok4yRNijuJ_Tkm2T-41" value="Milkshake" style="rounded=0;whiteSpace=wrap;html=1;fillColor=#dae8fc;strokeColor=#6c8ebf;" vertex="1" parent="1">
          <mxGeometry x="730" y="-190" width="120" height="60" as="geometry" />
        </mxCell>
        <mxCell id="GVv9ok4yRNijuJ_Tkm2T-42" value="Kaffe" style="rounded=0;whiteSpace=wrap;html=1;fillColor=#dae8fc;strokeColor=#6c8ebf;" vertex="1" parent="1">
          <mxGeometry x="1050" y="-190" width="120" height="60" as="geometry" />
        </mxCell>
        <mxCell id="GVv9ok4yRNijuJ_Tkm2T-43" value="Juice" style="rounded=0;whiteSpace=wrap;html=1;fillColor=#dae8fc;strokeColor=#6c8ebf;" vertex="1" parent="1">
          <mxGeometry x="1050" y="-520" width="120" height="60" as="geometry" />
        </mxCell>
        <mxCell id="GVv9ok4yRNijuJ_Tkm2T-44" value="&lt;u&gt;milkshake_id&lt;/u&gt;" style="ellipse;whiteSpace=wrap;html=1;fillColor=#d5e8d4;strokeColor=#82b366;" vertex="1" parent="1">
          <mxGeometry x="675" y="-240" width="90" height="40" as="geometry" />
        </mxCell>
        <mxCell id="GVv9ok4yRNijuJ_Tkm2T-46" value="smag" style="ellipse;whiteSpace=wrap;html=1;fillColor=#d5e8d4;strokeColor=#82b366;" vertex="1" parent="1">
          <mxGeometry x="780" y="-240" width="90" height="40" as="geometry" />
        </mxCell>
        <mxCell id="GVv9ok4yRNijuJ_Tkm2T-47" value="&lt;u&gt;sodavand_id&lt;/u&gt;" style="ellipse;whiteSpace=wrap;html=1;fillColor=#d5e8d4;strokeColor=#82b366;" vertex="1" parent="1">
          <mxGeometry x="680" y="-420" width="90" height="40" as="geometry" />
        </mxCell>
        <mxCell id="GVv9ok4yRNijuJ_Tkm2T-48" value="smag" style="ellipse;whiteSpace=wrap;html=1;fillColor=#d5e8d4;strokeColor=#82b366;" vertex="1" parent="1">
          <mxGeometry x="780" y="-420" width="90" height="40" as="geometry" />
        </mxCell>
        <mxCell id="GVv9ok4yRNijuJ_Tkm2T-49" value="Frappe" style="ellipse;whiteSpace=wrap;html=1;fillColor=#f8cecc;strokeColor=#b85450;" vertex="1" parent="1">
          <mxGeometry x="1035" y="-712.5" width="90" height="40" as="geometry" />
        </mxCell>
        <mxCell id="GVv9ok4yRNijuJ_Tkm2T-50" value="Frappe" style="rounded=0;whiteSpace=wrap;html=1;fillColor=#dae8fc;strokeColor=#6c8ebf;" vertex="1" parent="1">
          <mxGeometry x="1035" y="-365" width="120" height="60" as="geometry" />
        </mxCell>
        <mxCell id="GVv9ok4yRNijuJ_Tkm2T-51" value="&lt;u&gt;frappe_id&lt;/u&gt;" style="ellipse;whiteSpace=wrap;html=1;fillColor=#d5e8d4;strokeColor=#82b366;" vertex="1" parent="1">
          <mxGeometry x="990" y="-415" width="90" height="40" as="geometry" />
        </mxCell>
        <mxCell id="GVv9ok4yRNijuJ_Tkm2T-52" value="smag" style="ellipse;whiteSpace=wrap;html=1;fillColor=#d5e8d4;strokeColor=#82b366;" vertex="1" parent="1">
          <mxGeometry x="1090" y="-415" width="90" height="40" as="geometry" />
        </mxCell>
        <mxCell id="GVv9ok4yRNijuJ_Tkm2T-53" value="liter" style="ellipse;whiteSpace=wrap;html=1;fillColor=#d5e8d4;strokeColor=#82b366;" vertex="1" parent="1">
          <mxGeometry x="860" y="-200" width="90" height="40" as="geometry" />
        </mxCell>
        <mxCell id="GVv9ok4yRNijuJ_Tkm2T-54" value="liter" style="ellipse;whiteSpace=wrap;html=1;fillColor=#d5e8d4;strokeColor=#82b366;" vertex="1" parent="1">
          <mxGeometry x="830" y="-370" width="90" height="40" as="geometry" />
        </mxCell>
        <mxCell id="GVv9ok4yRNijuJ_Tkm2T-55" value="liter" style="ellipse;whiteSpace=wrap;html=1;fillColor=#d5e8d4;strokeColor=#82b366;" vertex="1" parent="1">
          <mxGeometry x="1160" y="-375" width="90" height="40" as="geometry" />
        </mxCell>
        <mxCell id="GVv9ok4yRNijuJ_Tkm2T-56" value="&lt;u&gt;vand_id&lt;/u&gt;" style="ellipse;whiteSpace=wrap;html=1;fillColor=#d5e8d4;strokeColor=#82b366;" vertex="1" parent="1">
          <mxGeometry x="695" y="-590" width="90" height="40" as="geometry" />
        </mxCell>
        <mxCell id="GVv9ok4yRNijuJ_Tkm2T-57" value="antal" style="ellipse;whiteSpace=wrap;html=1;fillColor=#d5e8d4;strokeColor=#82b366;" vertex="1" parent="1">
          <mxGeometry x="795" y="-590" width="90" height="40" as="geometry" />
        </mxCell>
        <mxCell id="GVv9ok4yRNijuJ_Tkm2T-58" value="&lt;u&gt;juice_id&lt;/u&gt;" style="ellipse;whiteSpace=wrap;html=1;fillColor=#d5e8d4;strokeColor=#82b366;" vertex="1" parent="1">
          <mxGeometry x="1010" y="-570" width="90" height="40" as="geometry" />
        </mxCell>
        <mxCell id="GVv9ok4yRNijuJ_Tkm2T-59" value="smag" style="ellipse;whiteSpace=wrap;html=1;fillColor=#d5e8d4;strokeColor=#82b366;" vertex="1" parent="1">
          <mxGeometry x="1100" y="-580" width="90" height="40" as="geometry" />
        </mxCell>
        <mxCell id="GVv9ok4yRNijuJ_Tkm2T-60" value="liter" style="ellipse;whiteSpace=wrap;html=1;fillColor=#d5e8d4;strokeColor=#82b366;" vertex="1" parent="1">
          <mxGeometry x="1170" y="-540" width="90" height="40" as="geometry" />
        </mxCell>
        <mxCell id="GVv9ok4yRNijuJ_Tkm2T-61" value="&lt;u&gt;kaffe_id&lt;/u&gt;" style="ellipse;whiteSpace=wrap;html=1;fillColor=#d5e8d4;strokeColor=#82b366;" vertex="1" parent="1">
          <mxGeometry x="1020" y="-240" width="90" height="40" as="geometry" />
        </mxCell>
        <mxCell id="GVv9ok4yRNijuJ_Tkm2T-62" value="kaffe_type" style="ellipse;whiteSpace=wrap;html=1;fillColor=#d5e8d4;strokeColor=#82b366;" vertex="1" parent="1">
          <mxGeometry x="1120" y="-240" width="90" height="40" as="geometry" />
        </mxCell>
        <mxCell id="GVv9ok4yRNijuJ_Tkm2T-63" value="Service_Items" style="rounded=0;whiteSpace=wrap;html=1;fillColor=#dae8fc;strokeColor=#6c8ebf;" vertex="1" parent="1">
          <mxGeometry x="260" y="-255" width="120" height="60" as="geometry" />
        </mxCell>
        <mxCell id="GVv9ok4yRNijuJ_Tkm2T-64" value="&lt;u&gt;item_id&lt;/u&gt;" style="ellipse;whiteSpace=wrap;html=1;fillColor=#d5e8d4;strokeColor=#82b366;" vertex="1" parent="1">
          <mxGeometry x="230" y="-305" width="90" height="40" as="geometry" />
        </mxCell>
        <mxCell id="GVv9ok4yRNijuJ_Tkm2T-65" value="bags" style="ellipse;whiteSpace=wrap;html=1;fillColor=#d5e8d4;strokeColor=#82b366;" vertex="1" parent="1">
          <mxGeometry x="330" y="-305" width="90" height="40" as="geometry" />
        </mxCell>
        <mxCell id="GVv9ok4yRNijuJ_Tkm2T-66" value="straws" style="ellipse;whiteSpace=wrap;html=1;fillColor=#d5e8d4;strokeColor=#82b366;" vertex="1" parent="1">
          <mxGeometry x="390" y="-265" width="90" height="40" as="geometry" />
        </mxCell>
        <mxCell id="GVv9ok4yRNijuJ_Tkm2T-67" value="cups" style="ellipse;whiteSpace=wrap;html=1;fillColor=#d5e8d4;strokeColor=#82b366;" vertex="1" parent="1">
          <mxGeometry x="320" y="-185" width="90" height="40" as="geometry" />
        </mxCell>
        <mxCell id="GVv9ok4yRNijuJ_Tkm2T-68" value="lids" style="ellipse;whiteSpace=wrap;html=1;fillColor=#d5e8d4;strokeColor=#82b366;" vertex="1" parent="1">
          <mxGeometry x="220" y="-185" width="90" height="40" as="geometry" />
        </mxCell>
        <mxCell id="GVv9ok4yRNijuJ_Tkm2T-69" value="trays" style="ellipse;whiteSpace=wrap;html=1;fillColor=#d5e8d4;strokeColor=#82b366;" vertex="1" parent="1">
          <mxGeometry x="380" y="-225" width="90" height="40" as="geometry" />
        </mxCell>
        <mxCell id="GVv9ok4yRNijuJ_Tkm2T-70" value="Tilbehør" style="rounded=0;whiteSpace=wrap;html=1;fillColor=#dae8fc;strokeColor=#6c8ebf;" vertex="1" parent="1">
          <mxGeometry x="300" y="-395" width="120" height="60" as="geometry" />
        </mxCell>
        <mxCell id="GVv9ok4yRNijuJ_Tkm2T-71" value="&lt;u&gt;tilbehør_id&lt;/u&gt;" style="ellipse;whiteSpace=wrap;html=1;fillColor=#d5e8d4;strokeColor=#82b366;" vertex="1" parent="1">
          <mxGeometry x="250" y="-435" width="90" height="40" as="geometry" />
        </mxCell>
        <mxCell id="GVv9ok4yRNijuJ_Tkm2T-73" value="navn" style="ellipse;whiteSpace=wrap;html=1;fillColor=#d5e8d4;strokeColor=#82b366;" vertex="1" parent="1">
          <mxGeometry x="340" y="-435" width="90" height="40" as="geometry" />
        </mxCell>
        <mxCell id="GVv9ok4yRNijuJ_Tkm2T-74" value="antal" style="ellipse;whiteSpace=wrap;html=1;fillColor=#d5e8d4;strokeColor=#82b366;" vertex="1" parent="1">
          <mxGeometry x="420" y="-405" width="90" height="40" as="geometry" />
        </mxCell>
        <mxCell id="GVv9ok4yRNijuJ_Tkm2T-75" value="mærke" style="ellipse;whiteSpace=wrap;html=1;fillColor=#d5e8d4;strokeColor=#82b366;" vertex="1" parent="1">
          <mxGeometry x="860" y="-550" width="90" height="40" as="geometry" />
        </mxCell>
        <mxCell id="GVv9ok4yRNijuJ_Tkm2T-77" value="Orders" style="rounded=0;whiteSpace=wrap;html=1;fillColor=#dae8fc;strokeColor=#6c8ebf;" vertex="1" parent="1">
          <mxGeometry x="320" y="-535" width="120" height="60" as="geometry" />
        </mxCell>
        <mxCell id="GVv9ok4yRNijuJ_Tkm2T-78" value="&lt;u&gt;order_id&lt;/u&gt;" style="ellipse;whiteSpace=wrap;html=1;fillColor=#d5e8d4;strokeColor=#82b366;" vertex="1" parent="1">
          <mxGeometry x="280" y="-585" width="90" height="40" as="geometry" />
        </mxCell>
        <mxCell id="GVv9ok4yRNijuJ_Tkm2T-79" value="" style="endArrow=none;html=1;rounded=0;exitX=0.5;exitY=1;exitDx=0;exitDy=0;entryX=0.25;entryY=0;entryDx=0;entryDy=0;" edge="1" parent="1" source="GVv9ok4yRNijuJ_Tkm2T-10" target="GVv9ok4yRNijuJ_Tkm2T-1">
          <mxGeometry width="50" height="50" relative="1" as="geometry">
            <mxPoint x="240" y="-650" as="sourcePoint" />
            <mxPoint x="290" y="-700" as="targetPoint" />
          </mxGeometry>
        </mxCell>
        <mxCell id="GVv9ok4yRNijuJ_Tkm2T-80" value="" style="endArrow=none;html=1;rounded=0;exitX=0;exitY=1;exitDx=0;exitDy=0;entryX=0.5;entryY=0;entryDx=0;entryDy=0;" edge="1" parent="1" source="GVv9ok4yRNijuJ_Tkm2T-24" target="GVv9ok4yRNijuJ_Tkm2T-1">
          <mxGeometry width="50" height="50" relative="1" as="geometry">
            <mxPoint x="-245" y="-750" as="sourcePoint" />
            <mxPoint x="-220" y="-720" as="targetPoint" />
          </mxGeometry>
        </mxCell>
        <mxCell id="GVv9ok4yRNijuJ_Tkm2T-81" value="" style="endArrow=none;html=1;rounded=0;exitX=0;exitY=0;exitDx=0;exitDy=0;entryX=1;entryY=0.75;entryDx=0;entryDy=0;" edge="1" parent="1" source="GVv9ok4yRNijuJ_Tkm2T-4" target="GVv9ok4yRNijuJ_Tkm2T-1">
          <mxGeometry width="50" height="50" relative="1" as="geometry">
            <mxPoint x="-235" y="-740" as="sourcePoint" />
            <mxPoint x="-210" y="-710" as="targetPoint" />
          </mxGeometry>
        </mxCell>
        <mxCell id="GVv9ok4yRNijuJ_Tkm2T-82" value="" style="endArrow=none;html=1;rounded=0;exitX=0.75;exitY=1;exitDx=0;exitDy=0;entryX=0.578;entryY=0;entryDx=0;entryDy=0;entryPerimeter=0;" edge="1" parent="1" source="GVv9ok4yRNijuJ_Tkm2T-1">
          <mxGeometry width="50" height="50" relative="1" as="geometry">
            <mxPoint x="-225" y="-730" as="sourcePoint" />
            <mxPoint x="-167.98000000000002" y="-640" as="targetPoint" />
          </mxGeometry>
        </mxCell>
        <mxCell id="GVv9ok4yRNijuJ_Tkm2T-83" value="" style="endArrow=none;html=1;rounded=0;exitX=0.25;exitY=1;exitDx=0;exitDy=0;entryX=1;entryY=0;entryDx=0;entryDy=0;" edge="1" parent="1" source="GVv9ok4yRNijuJ_Tkm2T-1" target="GVv9ok4yRNijuJ_Tkm2T-7">
          <mxGeometry width="50" height="50" relative="1" as="geometry">
            <mxPoint x="-215" y="-720" as="sourcePoint" />
            <mxPoint x="-190" y="-690" as="targetPoint" />
          </mxGeometry>
        </mxCell>
        <mxCell id="GVv9ok4yRNijuJ_Tkm2T-84" value="" style="endArrow=none;html=1;rounded=0;exitX=1;exitY=0.5;exitDx=0;exitDy=0;entryX=0;entryY=0.5;entryDx=0;entryDy=0;" edge="1" parent="1" source="GVv9ok4yRNijuJ_Tkm2T-9" target="GVv9ok4yRNijuJ_Tkm2T-1">
          <mxGeometry width="50" height="50" relative="1" as="geometry">
            <mxPoint x="-205" y="-710" as="sourcePoint" />
            <mxPoint x="-180" y="-680" as="targetPoint" />
          </mxGeometry>
        </mxCell>
        <mxCell id="GVv9ok4yRNijuJ_Tkm2T-85" value="" style="endArrow=none;html=1;rounded=0;exitX=1;exitY=0.5;exitDx=0;exitDy=0;entryX=0;entryY=1;entryDx=0;entryDy=0;" edge="1" parent="1" source="GVv9ok4yRNijuJ_Tkm2T-1" target="GVv9ok4yRNijuJ_Tkm2T-28">
          <mxGeometry width="50" height="50" relative="1" as="geometry">
            <mxPoint x="-195" y="-700" as="sourcePoint" />
            <mxPoint x="-170" y="-670" as="targetPoint" />
          </mxGeometry>
        </mxCell>
        <mxCell id="GVv9ok4yRNijuJ_Tkm2T-86" value="TABLE" style="rounded=0;whiteSpace=wrap;html=1;fillColor=#dae8fc;strokeColor=#6c8ebf;" vertex="1" parent="1">
          <mxGeometry x="250" y="-740" width="120" height="60" as="geometry" />
        </mxCell>
        <mxCell id="GVv9ok4yRNijuJ_Tkm2T-87" value="&lt;u&gt;PRIMARY_KEY&lt;/u&gt;" style="ellipse;whiteSpace=wrap;html=1;fillColor=#d5e8d4;strokeColor=#82b366;" vertex="1" parent="1">
          <mxGeometry x="380" y="-730" width="90" height="40" as="geometry" />
        </mxCell>
        <mxCell id="GVv9ok4yRNijuJ_Tkm2T-88" value="ATTRIBUTE" style="ellipse;whiteSpace=wrap;html=1;fillColor=#d5e8d4;strokeColor=#82b366;" vertex="1" parent="1">
          <mxGeometry x="580" y="-730" width="90" height="40" as="geometry" />
        </mxCell>
        <mxCell id="GVv9ok4yRNijuJ_Tkm2T-89" value="FOREIGN_KEY" style="ellipse;whiteSpace=wrap;html=1;fillColor=#f8cecc;strokeColor=#b85450;" vertex="1" parent="1">
          <mxGeometry x="480" y="-730" width="90" height="40" as="geometry" />
        </mxCell>
        <mxCell id="GVv9ok4yRNijuJ_Tkm2T-91" value="" style="endArrow=none;html=1;rounded=0;exitX=0.5;exitY=1;exitDx=0;exitDy=0;entryX=0.6;entryY=0.008;entryDx=0;entryDy=0;entryPerimeter=0;" edge="1" parent="1" source="GVv9ok4yRNijuJ_Tkm2T-35" target="GVv9ok4yRNijuJ_Tkm2T-2">
          <mxGeometry width="50" height="50" relative="1" as="geometry">
            <mxPoint x="985" y="-762.5" as="sourcePoint" />
            <mxPoint x="102.01999999999998" y="-1092.5" as="targetPoint" />
          </mxGeometry>
        </mxCell>
        <mxCell id="GVv9ok4yRNijuJ_Tkm2T-92" value="" style="endArrow=none;html=1;rounded=0;exitX=1;exitY=1;exitDx=0;exitDy=0;entryX=0.25;entryY=0;entryDx=0;entryDy=0;" edge="1" parent="1" source="GVv9ok4yRNijuJ_Tkm2T-34" target="GVv9ok4yRNijuJ_Tkm2T-2">
          <mxGeometry width="50" height="50" relative="1" as="geometry">
            <mxPoint x="995" y="-752.5" as="sourcePoint" />
            <mxPoint x="982" y="-734.5" as="targetPoint" />
          </mxGeometry>
        </mxCell>
        <mxCell id="GVv9ok4yRNijuJ_Tkm2T-93" value="" style="endArrow=none;html=1;rounded=0;exitX=0;exitY=1;exitDx=0;exitDy=0;entryX=1;entryY=0.25;entryDx=0;entryDy=0;" edge="1" parent="1" source="GVv9ok4yRNijuJ_Tkm2T-36" target="GVv9ok4yRNijuJ_Tkm2T-2">
          <mxGeometry width="50" height="50" relative="1" as="geometry">
            <mxPoint x="1005" y="-742.5" as="sourcePoint" />
            <mxPoint x="992" y="-724.5" as="targetPoint" />
          </mxGeometry>
        </mxCell>
        <mxCell id="GVv9ok4yRNijuJ_Tkm2T-94" value="" style="endArrow=none;html=1;rounded=0;exitX=0;exitY=0;exitDx=0;exitDy=0;entryX=1;entryY=0.5;entryDx=0;entryDy=0;" edge="1" parent="1" source="GVv9ok4yRNijuJ_Tkm2T-49" target="GVv9ok4yRNijuJ_Tkm2T-2">
          <mxGeometry width="50" height="50" relative="1" as="geometry">
            <mxPoint x="1015" y="-732.5" as="sourcePoint" />
            <mxPoint x="1080" y="-712.5" as="targetPoint" />
          </mxGeometry>
        </mxCell>
        <mxCell id="GVv9ok4yRNijuJ_Tkm2T-96" value="" style="endArrow=none;html=1;rounded=0;entryX=0.75;entryY=1;entryDx=0;entryDy=0;" edge="1" parent="1" source="GVv9ok4yRNijuJ_Tkm2T-38" target="GVv9ok4yRNijuJ_Tkm2T-2">
          <mxGeometry width="50" height="50" relative="1" as="geometry">
            <mxPoint x="1025" y="-722.5" as="sourcePoint" />
            <mxPoint x="1012" y="-704.5" as="targetPoint" />
          </mxGeometry>
        </mxCell>
        <mxCell id="GVv9ok4yRNijuJ_Tkm2T-97" value="" style="endArrow=none;html=1;rounded=0;exitX=0.25;exitY=1;exitDx=0;exitDy=0;entryX=0.5;entryY=0;entryDx=0;entryDy=0;" edge="1" parent="1" source="GVv9ok4yRNijuJ_Tkm2T-2" target="GVv9ok4yRNijuJ_Tkm2T-37">
          <mxGeometry width="50" height="50" relative="1" as="geometry">
            <mxPoint x="1035" y="-712.5" as="sourcePoint" />
            <mxPoint x="1022" y="-694.5" as="targetPoint" />
          </mxGeometry>
        </mxCell>
        <mxCell id="GVv9ok4yRNijuJ_Tkm2T-98" value="" style="endArrow=none;html=1;rounded=0;exitX=0;exitY=0.5;exitDx=0;exitDy=0;entryX=1;entryY=0.5;entryDx=0;entryDy=0;" edge="1" parent="1" source="GVv9ok4yRNijuJ_Tkm2T-2" target="GVv9ok4yRNijuJ_Tkm2T-33">
          <mxGeometry width="50" height="50" relative="1" as="geometry">
            <mxPoint x="1045" y="-702.5" as="sourcePoint" />
            <mxPoint x="1032" y="-684.5" as="targetPoint" />
          </mxGeometry>
        </mxCell>
        <mxCell id="GVv9ok4yRNijuJ_Tkm2T-101" value="Ingredienser" style="ellipse;whiteSpace=wrap;html=1;fillColor=#f8cecc;strokeColor=#b85450;" vertex="1" parent="1">
          <mxGeometry x="370" y="-590" width="90" height="40" as="geometry" />
        </mxCell>
        <mxCell id="GVv9ok4yRNijuJ_Tkm2T-102" value="Drikkevarer" style="ellipse;whiteSpace=wrap;html=1;fillColor=#f8cecc;strokeColor=#b85450;" vertex="1" parent="1">
          <mxGeometry x="460" y="-560" width="90" height="40" as="geometry" />
        </mxCell>
        <mxCell id="GVv9ok4yRNijuJ_Tkm2T-103" value="Service_Items" style="ellipse;whiteSpace=wrap;html=1;fillColor=#f8cecc;strokeColor=#b85450;" vertex="1" parent="1">
          <mxGeometry x="450" y="-520" width="90" height="40" as="geometry" />
        </mxCell>
        <mxCell id="GVv9ok4yRNijuJ_Tkm2T-104" value="Tilbehør" style="ellipse;whiteSpace=wrap;html=1;fillColor=#f8cecc;strokeColor=#b85450;" vertex="1" parent="1">
          <mxGeometry x="210" y="-540" width="90" height="40" as="geometry" />
        </mxCell>
      </root>
    </mxGraphModel>
  </diagram>
</mxfile>
